<svg xmlns="http://www.w3.org/2000/svg" xmlns:xlink="http://www.w3.org/1999/xlink" fill="none" version="1.1" width="300" height="300" viewBox="0 0 300 300"><defs><clipPath id="master_svg0_10_31"><rect x="-11" y="-11" width="322" height="322" rx="0"/></clipPath><linearGradient x1="0.5" y1="0" x2="0.5" y2="1" id="master_svg1_10_0755"><stop offset="0%" stop-color="#FF8F49" stop-opacity="1"/><stop offset="100%" stop-color="#FF701E" stop-opacity="1"/></linearGradient><linearGradient x1="0.5" y1="0" x2="0.5" y2="1" id="master_svg2_10_0755"><stop offset="0%" stop-color="#FF8F49" stop-opacity="1"/><stop offset="100%" stop-color="#FF701E" stop-opacity="1"/></linearGradient></defs><g clip-path="url(#master_svg0_10_31)"><ellipse cx="150.00000953674316" cy="149.9999885559082" rx="22.628572463989258" ry="22.611568450927734" fill="#FF701E" fill-opacity="1"/><path d="M67.54733999999999,42.4637327L15.4420795,132.46372200000002Q10.7319984,140.59931,10.7319984,149.99999Q10.7319984,159.40068,15.4420781,167.53627L67.54733300000001,257.53627Q72.24054699999999,265.64272,80.355408,270.32135Q88.470261,274.99998,97.837265,274.99998L202.22035,274.99998Q211.55354,274.99998,219.64751,270.35281Q227.74147,265.70564,232.44684,257.64536L284.49432,168.48814Q289.23392,160.36921999999998,289.26761,150.96819Q289.3013,141.56718,284.62,133.41449L232.45793,42.5717273Q227.77699,34.4196439,219.64157,29.7098217Q211.50615,25,202.10574,25L97.837265,25Q88.470261,25,80.355404,29.6786413Q72.24055100000001,34.3572793,67.54733999999999,42.4637327ZM86.5867,246.51344L34.481457,156.51346999999998Q30.710499,149.99999,34.481459,143.48651L86.586716,53.48653Q90.342072,47,97.837265,47L202.10574,47Q209.63181,47,213.37941,53.526634L265.54149,144.36939999999998Q269.28941,150.89661,265.49481000000003,157.39677L213.44733,246.55399Q209.68434,252.99998,202.22035,252.99998L97.837265,252.99998Q90.342072,252.99998,86.5867,246.51344Z" fill-rule="evenodd" fill="url(#master_svg1_10_0755)" fill-opacity="1"/><path d="M98.18838901049804,95.26017860019532L76.68780901049804,132.49984720019532Q71.99861001049804,140.6216772001953,71.99861001049804,149.99999220019532Q71.99861001049804,159.37830320019532,76.68780801049805,167.5001452001953L98.18839101049805,204.7398102001953Q102.87752501049805,212.86153020019532,110.99926601049805,217.5506002001953Q119.12102501049804,222.23967020019532,128.49919101049804,222.23967020019532L171.55838401049806,222.23967020019532Q180.90279701049803,222.23967020019532,189.00370701049803,217.58206020019531Q197.10459701049803,212.9244602001953,201.80596701049805,204.84885020019533L223.24881701049804,168.01613620019532Q227.96744701049803,159.9108962001953,228.00100701049806,150.53218820019532Q228.03455701049805,141.1534882001953,223.37407701049804,133.01469420019532L201.81671701049805,95.36808730019531Q197.13992701049804,87.2008004001953,188.99765701049805,82.48056410019531Q180.85540701049803,77.76033020019531,171.44386701049805,77.76033020019531L128.49919101049804,77.76033020019531Q119.12101401049804,77.76033020019531,110.99926401049805,82.44939710019531Q102.87752201049804,87.13846060019532,98.18838901049804,95.26017860019532ZM95.74031401049805,156.5000532001953Q91.98746001049804,149.99999220019532,95.74031601049805,143.4999202001953L117.24089401049804,106.26027320019531Q120.99368301049805,99.76033020019531,128.49919101049804,99.76033020019531L171.44386701049805,99.76033020019531Q178.98022801049805,99.76033020019531,182.72520701049805,106.30035420019532L204.28257701049804,143.94696020019532Q208.01249701049804,150.4606702001953,204.23606701049806,156.94748720019533L182.79319701049803,193.78022020019532Q179.03271101049805,200.23966020019532,171.55838401049806,200.23966020019532L128.49919101049804,200.23966020019532Q120.99367901049806,200.23966020019532,117.24089401049804,193.7397202001953L95.74031401049805,156.5000532001953Z" fill-rule="evenodd" fill="url(#master_svg2_10_0755)" fill-opacity="1"/></g></svg>