<svg xmlns="http://www.w3.org/2000/svg" xmlns:xlink="http://www.w3.org/1999/xlink" fill="none" version="1.1" width="584" height="530" viewBox="0 0 584 530"><defs><linearGradient x1="1" y1="0.976190447807312" x2="0.9431913588574473" y2="0.4160768226357169" id="master_svg0_441_8346"><stop offset="0%" stop-color="#70BFFC" stop-opacity="1"/><stop offset="100%" stop-color="#248EFF" stop-opacity="1"/></linearGradient><linearGradient x1="1.093421459197998" y1="0.14084236323833466" x2="0.22669416636583778" y2="1.0054116870189262" id="master_svg1_441_00814"><stop offset="0%" stop-color="#9ED3FF" stop-opacity="1"/><stop offset="100%" stop-color="#008DFF" stop-opacity="1"/></linearGradient><linearGradient x1="0.9371286034584045" y1="0" x2="0.23142881636224377" y2="1.0232181307167079" id="master_svg2_441_01590"><stop offset="0%" stop-color="#8E89FF" stop-opacity="1"/><stop offset="99.28571581840515%" stop-color="#3666D6" stop-opacity="1"/></linearGradient><linearGradient x1="1" y1="0.9670329689979553" x2="0.8511550126423645" y2="0.33537272542733243" id="master_svg3_441_03278"><stop offset="0%" stop-color="#6861FF" stop-opacity="1"/><stop offset="100%" stop-color="#32D8D8" stop-opacity="1"/></linearGradient><linearGradient x1="1" y1="0.2975577712059021" x2="0.10830141721967393" y2="1.0514457434356221" id="master_svg4_443_1587"><stop offset="0%" stop-color="#56EDFD" stop-opacity="1"/><stop offset="100%" stop-color="#0094FF" stop-opacity="1"/></linearGradient><linearGradient x1="0" y1="0.9752992987632751" x2="0.8734553766805664" y2="0.055787581237986994" id="master_svg5_441_9816"><stop offset="0%" stop-color="#1A9199" stop-opacity="1"/><stop offset="100%" stop-color="#6FBFFC" stop-opacity="1"/></linearGradient></defs><g><g><g><path d="M148.405,232.769L233.696,147.458C246.264,134.887,267.771,143.779,267.771,161.546L267.771,513.997C267.771,528.211,250.565,535.325,240.511,525.268L14.0067,298.709C-4.67422,280.024,-4.66813,249.751,14.0203,231.073L240.516,4.70571C250.572,-5.34478,267.771,1.77019,267.771,15.9806L267.771,48.2304C267.771,52.4537,266.095,56.5047,263.109,59.4945L58.1555,264.723L190.378,396.977C198.547,405.148,212.527,399.368,212.527,387.82L212.527,246.777L170.948,288.011C160.874,298.001,143.736,290.872,143.736,276.692L143.736,244.039C143.736,239.813,145.415,235.759,148.405,232.769Z" fill-rule="evenodd" fill="url(#master_svg0_441_8346)" fill-opacity="1"/></g><g><path d="M143.73623657226562,295.8440378417969C143.73623657226562,302.9340378417969,152.30512657226564,306.4980378417969,157.34213657226562,301.50303784179687L212.52733657226563,246.77703784179687Q245.27223657226563,215.2427378417969,260.1942365722656,222.1474378417969Q264.85023657226566,224.30213784179688,267.7712365722656,230.20023784179688L267.7712365722656,161.54573784179686C267.7712365722656,143.77890784179687,246.26423657226565,134.88695784179689,233.69593657226562,147.45784784179688L148.40513657226563,232.76913784179686C145.41548657226562,235.75953784179688,143.73623657226562,239.81303784179687,143.73623657226562,244.03903784179687L143.73623657226562,295.8440378417969Z" fill="url(#master_svg1_441_00814)" fill-opacity="1"/></g><g><path d="M42.794705996093754,202.64491044312715Q26.23244599609375,219.22391044312715,58.15554599609375,264.72291044312715L263.10914599609373,59.494510443127155C266.09414599609374,56.50471044312715,267.77114599609376,52.45371044312716,267.77114599609376,48.230410443127155L267.77114599609376,16.020510443127158C267.77114599609376,1.8044704431271552,250.56014599609375,-5.307939556872845,240.50714599609375,4.753890443127156L42.80612599609375,202.63291044312714L42.794705996093754,202.64491044312715Z" fill="url(#master_svg2_441_01590)" fill-opacity="1"/></g></g><g transform="matrix(-1,0,0,-1,1168,1060)"><g><path d="M732.405,762.769L817.696,677.458C830.264,664.887,851.771,673.779,851.771,691.546L851.771,1043.9969999999998C851.771,1058.211,834.565,1065.325,824.511,1055.268L598.0067,828.7090000000001C579.32578,810.024,579.33187,779.751,598.0203,761.073L824.516,534.70571C834.572,524.65522,851.771,531.77019,851.771,545.9806L851.771,578.2304C851.771,582.4537,850.095,586.5047,847.1089999999999,589.4945L642.1555,794.723L774.3779999999999,926.977C782.547,935.148,796.527,929.3679999999999,796.527,917.8199999999999L796.527,776.777L754.948,818.011C744.874,828.001,727.736,820.8720000000001,727.736,806.692L727.736,774.039C727.736,769.813,729.415,765.759,732.405,762.769Z" fill-rule="evenodd" fill="url(#master_svg3_441_03278)" fill-opacity="1"/></g><g><path d="M727.7362365722656,825.8440378417969C727.7362365722656,832.9340378417969,736.3051265722656,836.4980378417969,741.3421365722656,831.5030378417969L796.5273365722657,776.7770378417969Q829.2722365722657,745.2427378417968,844.1942365722656,752.1474378417969Q848.8502365722657,754.3021378417968,851.7712365722656,760.2002378417969L851.7712365722656,691.5457378417968C851.7712365722656,673.7789078417969,830.2642365722656,664.8869578417969,817.6959365722656,677.4578478417968L732.4051365722656,762.7691378417969C729.4154865722656,765.7595378417968,727.7362365722656,769.8130378417968,727.7362365722656,774.0390378417969L727.7362365722656,825.8440378417969Z" fill="url(#master_svg4_443_1587)" fill-opacity="1"/></g><g><path d="M626.7947059960937,732.6449104431272Q610.2324459960937,749.2239104431271,642.1555459960938,794.7229104431271L847.1091459960937,589.4945104431272C850.0941459960937,586.5047104431271,851.7711459960938,582.4537104431272,851.7711459960938,578.2304104431272L851.7711459960938,546.0205104431271C851.7711459960938,531.8044704431271,834.5601459960938,524.6920604431272,824.5071459960938,534.7538904431271L626.8061259960938,732.6329104431271L626.7947059960937,732.6449104431272Z" fill="url(#master_svg5_441_9816)" fill-opacity="1"/></g></g></g></svg>