<svg xmlns="http://www.w3.org/2000/svg" xmlns:xlink="http://www.w3.org/1999/xlink" fill="none" version="1.1" width="668" height="668" viewBox="0 0 668 668"><defs><clipPath id="master_svg0_417_15940"><rect x="0" y="0" width="668" height="668" rx="0"/></clipPath><linearGradient x1="1" y1="0.976190447807312" x2="0.7838828563690186" y2="0.43223443627357483" id="master_svg1_441_8346"><stop offset="0%" stop-color="#70BFFC" stop-opacity="1"/><stop offset="100%" stop-color="#248EFF" stop-opacity="1"/></linearGradient><linearGradient x1="1.093421459197998" y1="0.14084236323833466" x2="0" y2="0.7781516909599304" id="master_svg2_441_00814"><stop offset="0%" stop-color="#9ED3FF" stop-opacity="1"/><stop offset="100%" stop-color="#008DFF" stop-opacity="1"/></linearGradient><linearGradient x1="0.9371286034584045" y1="0" x2="0.09386466443538666" y2="0.9283419847488403" id="master_svg3_441_01590"><stop offset="0%" stop-color="#8E89FF" stop-opacity="1"/><stop offset="99.28571581840515%" stop-color="#3666D6" stop-opacity="1"/></linearGradient><linearGradient x1="1" y1="0.9670329689979553" x2="0.49450555443763733" y2="0.4194139242172241" id="master_svg4_441_03278"><stop offset="0%" stop-color="#6861FF" stop-opacity="1"/><stop offset="100%" stop-color="#32D8D8" stop-opacity="1"/></linearGradient><linearGradient x1="1" y1="0.2975577712059021" x2="-0.07859037816524506" y2="0.8303901553153992" id="master_svg5_443_1587"><stop offset="0%" stop-color="#56EDFD" stop-opacity="1"/><stop offset="100%" stop-color="#0094FF" stop-opacity="1"/></linearGradient><linearGradient x1="0" y1="0.9752992987632751" x2="1" y2="0.17599385976791382" id="master_svg6_441_9816"><stop offset="0%" stop-color="#1A9199" stop-opacity="1"/><stop offset="100%" stop-color="#6FBFFC" stop-opacity="1"/></linearGradient></defs><g clip-path="url(#master_svg0_417_15940)"><g><g><g><path d="M190.405,301.769L275.696,216.458C288.264,203.887,309.771,212.779,309.771,230.546L309.771,582.997C309.771,597.211,292.565,604.325,282.51099999999997,594.268L56.0067,367.709C37.32578,349.024,37.33187,318.751,56.0203,300.073L282.51599999999996,73.70571C292.572,63.65522,309.771,70.77019,309.771,84.9806L309.771,117.2304C309.771,121.4537,308.095,125.5047,305.109,128.49450000000002L100.1555,333.723L232.378,465.977C240.547,474.148,254.527,468.368,254.527,456.82L254.527,315.777L212.948,357.011C202.874,367.001,185.736,359.872,185.736,345.692L185.736,313.039C185.736,308.813,187.415,304.759,190.405,301.769Z" fill-rule="evenodd" fill="url(#master_svg1_441_8346)" fill-opacity="1"/></g><g><path d="M185.73623657226562,364.8440378417969C185.73623657226562,371.9340378417969,194.30512657226564,375.4980378417969,199.34213657226562,370.50303784179687L254.52733657226563,315.77703784179687Q287.2722365722656,284.2427378417969,302.1942365722656,291.1474378417969Q306.85023657226566,293.3021378417969,309.7712365722656,299.2002378417969L309.7712365722656,230.54573784179686C309.7712365722656,212.77890784179687,288.26423657226565,203.88695784179689,275.6959365722656,216.45784784179688L190.40513657226563,301.76913784179686C187.41548657226562,304.7595378417969,185.73623657226562,308.81303784179687,185.73623657226562,313.03903784179687L185.73623657226562,364.8440378417969Z" fill="url(#master_svg2_441_00814)" fill-opacity="1"/></g><g><path d="M84.79470599609375,271.6449104431272Q68.23244599609374,288.2239104431271,100.15554599609375,333.72291044312715L305.10914599609373,128.49451044312715C308.09414599609374,125.50471044312715,309.77114599609376,121.45371044312716,309.77114599609376,117.23041044312716L309.77114599609376,85.02051044312715C309.77114599609376,70.80447044312716,292.56014599609375,63.692060443127154,282.50714599609375,73.75389044312716L84.80612599609375,271.6329104431271L84.79470599609375,271.6449104431272Z" fill="url(#master_svg3_441_01590)" fill-opacity="1"/></g></g><g transform="matrix(-1,0,0,-1,1252,1198)"><g><path d="M774.405,831.769L859.696,746.458C872.264,733.887,893.771,742.779,893.771,760.546L893.771,1112.9969999999998C893.771,1127.211,876.565,1134.325,866.511,1124.268L640.0067,897.7090000000001C621.32578,879.024,621.33187,848.751,640.0203,830.073L866.516,603.70571C876.572,593.65522,893.771,600.77019,893.771,614.9806L893.771,647.2304C893.771,651.4537,892.095,655.5047,889.1089999999999,658.4945L684.1555,863.723L816.3779999999999,995.977C824.547,1004.148,838.527,998.3679999999999,838.527,986.8199999999999L838.527,845.777L796.948,887.011C786.874,897.001,769.736,889.8720000000001,769.736,875.692L769.736,843.039C769.736,838.813,771.415,834.759,774.405,831.769Z" fill-rule="evenodd" fill="url(#master_svg4_441_03278)" fill-opacity="1"/></g><g><path d="M769.7362365722656,894.8440378417969C769.7362365722656,901.9340378417969,778.3051265722656,905.4980378417969,783.3421365722656,900.5030378417969L838.5273365722657,845.7770378417969Q871.2722365722657,814.2427378417968,886.1942365722656,821.1474378417969Q890.8502365722657,823.3021378417968,893.7712365722656,829.2002378417969L893.7712365722656,760.5457378417968C893.7712365722656,742.7789078417969,872.2642365722656,733.8869578417969,859.6959365722656,746.4578478417968L774.4051365722656,831.7691378417969C771.4154865722656,834.7595378417968,769.7362365722656,838.8130378417968,769.7362365722656,843.0390378417969L769.7362365722656,894.8440378417969Z" fill="url(#master_svg5_443_1587)" fill-opacity="1"/></g><g><path d="M668.7947059960937,801.6449104431272Q652.2324459960937,818.2239104431271,684.1555459960938,863.7229104431271L889.1091459960937,658.4945104431272C892.0941459960937,655.5047104431271,893.7711459960938,651.4537104431272,893.7711459960938,647.2304104431272L893.7711459960938,615.0205104431271C893.7711459960938,600.8044704431271,876.5601459960938,593.6920604431272,866.5071459960938,603.7538904431271L668.8061259960938,801.6329104431271L668.7947059960937,801.6449104431272Z" fill="url(#master_svg6_441_9816)" fill-opacity="1"/></g></g></g></g></svg>