<?xml version="1.0" standalone="no"?><!DOCTYPE svg PUBLIC "-//W3C//DTD SVG 1.1//EN" "http://www.w3.org/Graphics/SVG/1.1/DTD/svg11.dtd"><svg t="1783049867183" class="icon" viewBox="0 0 6875 1024" version="1.1" xmlns="http://www.w3.org/2000/svg" p-id="5272" xmlns:xlink="http://www.w3.org/1999/xlink" width="1342.7734375" height="200"><path d="M3411.931429 133.558857l-253.769143 206.738286h165.741714V1012.297143l88.027429-70.912V133.558857zM3485.074286 881.371429l258.230857-211.931429h-170.349714V12.8l-87.881143 61.184V881.371429zM6681.417143 254.281143c29.257143 15.213714 50.322286 28.086857 63.195428 38.619428l91.282286-173.787428c-45.641143-28.086857-100.644571-53.248-165.010286-75.483429-63.195429-22.235429-131.657143-33.353143-205.385142-33.353143-70.217143 0-135.168 11.702857-194.852572 35.108572-58.514286 23.405714-105.325714 57.929143-140.434286 103.570286-33.938286 45.641143-50.907429 102.4-50.907428 170.276571 0 76.068571 23.990857 134.582857 71.972571 175.542857 49.152 39.789714 124.050286 72.557714 224.694857 98.304 80.749714 21.065143 145.700571 40.374857 194.852572 57.929143 50.322286 16.384 75.483429 43.885714 75.483428 82.505143 0 57.344-53.833143 86.016-161.499428 86.016-53.833143 0-104.740571-6.436571-152.722286-19.309714-47.981714-12.873143-90.112-28.672-126.390857-47.396572-35.108571-18.724571-60.269714-35.693714-75.483429-50.907428l-94.793142 184.32c60.854857 38.619429 130.486857 69.046857 208.896 91.282285 78.409143 22.235429 157.403429 33.353143 236.982857 33.353143 69.046857 0 133.412571-9.362286 193.097143-28.086857 59.684571-19.894857 107.666286-51.492571 143.945142-94.793143 37.449143-44.470857 56.173714-102.985143 56.173715-175.542857 0-59.684571-14.043429-107.666286-42.130286-143.945143-26.916571-37.449143-66.121143-67.291429-117.613714-89.526857-50.322286-22.235429-110.006857-42.130286-179.053715-59.684571-78.409143-18.724571-138.093714-35.693714-179.053714-50.907429-39.789714-15.213714-59.684571-40.96-59.684571-77.238857 0-62.025143 55.003429-93.037714 165.010285-93.037714 40.96 0 80.749714 5.851429 119.369143 17.554285 38.619429 10.532571 71.972571 23.405714 100.059429 38.619429z" fill="#5A29E4" p-id="5273"></path><path d="M4834.084571 1005.604571c-77.238857 0-147.456-13.458286-210.651428-40.374857-63.195429-28.086857-117.650286-65.536-163.291429-112.347428a520.045714 520.045714 0 0 1-105.325714-161.499429 480.475429 480.475429 0 0 1-36.864-184.32c0-64.365714 12.873143-126.390857 38.619429-186.075428a489.508571 489.508571 0 0 1 108.873142-157.988572 517.412571 517.412571 0 0 1 164.973715-110.592c63.195429-26.916571 132.242286-40.374857 207.140571-40.374857 77.238857 0 147.492571 14.628571 210.688 43.885714 63.195429 28.086857 117.028571 66.121143 161.499429 114.102857a499.163429 499.163429 0 0 1 105.289143 159.744 475.538286 475.538286 0 0 1 36.900571 182.564572c0 64.365714-12.873143 126.390857-38.619429 186.075428a516.022857 516.022857 0 0 1-108.873142 157.988572c-45.641143 45.641143-100.022857 81.92-163.218286 108.836571-63.195429 26.916571-132.242286 40.374857-207.140572 40.374857z m-301.970285-496.786285c0 52.662857 12.324571 102.985143 36.900571 150.966857a302.957714 302.957714 0 0 0 103.533714 114.102857c45.641143 29.257143 100.059429 43.885714 163.254858 43.885714 64.365714 0 118.784-15.213714 163.254857-45.641143 44.507429-31.597714 78.409143-70.802286 101.814857-117.613714 23.405714-47.981714 35.145143-97.133714 35.145143-147.456 0-52.662857-12.288-102.4-36.864-149.211428a285.696 285.696 0 0 0-105.362286-112.347429c-44.470857-29.257143-97.682286-43.885714-159.707429-43.885714-64.365714 0-119.405714 15.213714-165.046857 45.641143a302.665143 302.665143 0 0 0-101.814857 115.858285 321.974857 321.974857 0 0 0-35.108571 145.700572zM0 998.582857L428.324571 17.298286h173.787429l426.569143 981.284571h-224.694857l-98.304-229.961143H324.754286l-98.304 229.961143H0zM516.096 275.346286l-143.945143 308.955428h282.624l-138.678857-308.955428z" fill="#5A29E4" p-id="5274"></path><path d="M1858.596571 17.298286l270.336 347.574857L2399.268571 17.298286h229.961143L2241.28 514.084571l375.661714 484.498286H2387.017143l-258.048-333.531428-256.292572 333.531428h-233.472l377.417143-484.498286L1626.88 17.298286h231.716571z" fill="#5A29E4" p-id="5275"></path></svg>