<?xml version="1.0" standalone="no"?><!DOCTYPE svg PUBLIC "-//W3C//DTD SVG 1.1//EN" "http://www.w3.org/Graphics/SVG/1.1/DTD/svg11.dtd"><svg t="1783048791465" class="icon" viewBox="0 0 1024 1024" version="1.1" xmlns="http://www.w3.org/2000/svg" p-id="10597" xmlns:xlink="http://www.w3.org/1999/xlink" width="200" height="200"><path d="M227.2 508.8c0-41.6 6.4-76.8 19.2-108.8 12.8-32 28.8-57.6 51.2-80 22.4-22.4 48-38.4 76.8-51.2s60.8-16 92.8-16 60.8 6.4 86.4 19.2c25.6 12.8 48 28.8 64 44.8l-70.4 80c-12.8-9.6-22.4-19.2-35.2-22.4-12.8-3.2-25.6-9.6-44.8-9.6-16 0-28.8 3.2-41.6 9.6-12.8 6.4-25.6 16-35.2 28.8s-16 25.6-22.4 44.8c-6.4 19.2-9.6 38.4-9.6 60.8 0 48 9.6 83.2 32 105.6 22.4 25.6 48 38.4 83.2 38.4 16 0 32-3.2 44.8-9.6 12.8-6.4 25.6-16 35.2-28.8l70.4 80c-22.4 25.6-44.8 41.6-70.4 54.4-25.6 12.8-54.4 19.2-86.4 19.2s-64-6.4-92.8-16-54.4-25.6-76.8-48-35.2-54.4-48-86.4c-16-28.8-22.4-67.2-22.4-108.8z" fill="#529BBA" p-id="10598"></path><path d="M697.6 547.2h-32l-12.8 76.8h-38.4l12.8-76.8h-38.4V512h48l6.4-51.2h-41.6v-35.2h48l12.8-76.8h38.4l-12.8 76.8h32l12.8-76.8h38.4l-12.8 76.8H800v35.2h-51.2l-6.4 51.2h41.6v35.2h-51.2l-12.8 76.8h-38.4c0 3.2 16-76.8 16-76.8z m-25.6-32h32l6.4-51.2h-32l-6.4 51.2z" fill="#529BBA" p-id="10599"></path></svg>