<svg xmlns="http://www.w3.org/2000/svg" fill="none" viewBox="0 0 444 150" class="icon_ZrcS"><g clip-path="url(#master_svg0_198_738)"><path fill="#298FD8" d="M47.66 131.985v-10.67c-6.49 0-8.14-1.43-8.14-8.91v-20.46c0-7.7-3.19-11.11-9.13-12.76 5.94-1.65 9.13-5.06 9.13-12.76v-20.46c0-7.15 1.43-8.91 8.14-8.91v-10.67c-14.63 0-21.89 6.05-21.89 19.58v20.46c0 6.27-2.2 7.37-7.59 7.37v10.67c5.39 0 7.59 1.21 7.59 7.48v20.46c0 13.42 7.15 19.58 21.89 19.58m85.36-85.8v-12.54H87.81v76.34h14.41v-31.13h28.6v-12.54h-28.6v-20.13zm63.47 28.93c0-13.97-4.29-25.63-24.86-25.63-18.04 0-28.49 6.82-28.49 30.8s10.45 30.8 28.49 30.8c9.68 0 18.26-1.98 21.78-3.96v-11.22c-4.07 2.09-12.21 4.07-19.36 4.07-11.88 0-16.72-4.62-17.05-14.52l38.94-2.53c.33-1.98.55-4.95.55-7.81m-39.49.55c.44-10.34 3.52-15.62 14.63-15.62 10.56 0 12.1 6.27 12.1 13.64zm81.29-14.08v-11H225.2v-14.08h-13.75v14.08h-8.25v11h8.25v29.7c0 15.62 4.95 19.36 19.14 19.36 2.53 0 5.06-.22 7.37-.55v-10.89c-1.65.44-3.3.55-5.39.55-6.05 0-7.37-1.87-7.37-9.57v-28.6zm36.3 49.5c5.61 0 12.43-.99 15.84-2.2v-11.66c-4.29 1.65-9.24 2.31-14.19 2.31-11.66 0-16.17-4.18-16.17-19.14 0-15.18 4.51-19.47 15.95-19.47 5.28 0 9.68.77 13.97 2.31v-11.77c-3.63-1.1-9.35-1.98-15.4-1.98-18.15 0-28.71 6.82-28.71 30.8s10.56 30.8 28.71 30.8m61.71-61.6c-8.14 0-15.4 2.53-18.7 8.8v-31.9h-13.75v83.6h13.75v-39.27c2.2-7.7 7.59-9.79 14.52-9.79 8.25 0 10.23 3.85 10.23 12.21v36.85h13.75v-40.7c0-12.54-4.73-19.8-19.8-19.8m59.29 82.5c14.63 0 21.89-6.05 21.89-19.58v-20.46c0-6.27 2.31-7.37 7.59-7.37v-10.67c-5.28 0-7.59-1.21-7.59-7.48v-20.46c0-13.42-7.04-19.58-21.89-19.58v10.67c6.49 0 8.14 1.43 8.14 8.91v20.46c0 7.7 3.3 11.11 9.13 12.76-5.83 1.65-9.13 5.06-9.13 12.76v20.46c0 7.15-1.32 8.91-8.14 8.91z"></path></g></svg>