<svg xmlns="http://www.w3.org/2000/svg" xmlns:xlink="http://www.w3.org/1999/xlink" fill="none" version="1.1" width="300" height="300" viewBox="0 0 300 300"><defs><clipPath id="master_svg0_1_0"><rect x="0" y="0" width="300" height="300" rx="0"/></clipPath></defs><g clip-path="url(#master_svg0_1_0)"><path d="M300,150.33563474121092L224.70993,20.33562770121094L74.709915,19.999984741210938L0,149.66432474121095L75.290077,279.6643247412109L225.2901,279.99998474121094L300,150.33563474121092ZM279.94803,150.35807474121094L214.70326,37.70288674121094L84.716515,37.41203474121094L20.052002,149.64189474121093L85.296738,262.29707474121096L215.28351,262.5879347412109L279.94803,150.35807474121094ZM234.59854,149.94625474121094L192.48726,76.75166674121094L108.17183,76.80541274121094L65.967651,150.05374474121095L108.07893,223.24832474121095L192.39436,223.19458474121095L234.59854,149.94625474121094ZM214.56317,149.93986474121093L182.46405,94.14767474121093L118.19504,94.18863674121094L86.003044,150.06011474121092L118.10215,205.85231474121093L182.37117,205.81135474121095L214.56317,149.93986474121093Z" fill-rule="evenodd" fill="#FF701E" fill-opacity="1"/><ellipse cx="150" cy="149.99998474121094" rx="24" ry="24" fill="#FF701E" fill-opacity="1"/></g></svg>