<?xml version="1.0" standalone="no"?><!DOCTYPE svg PUBLIC "-//W3C//DTD SVG 1.1//EN" "http://www.w3.org/Graphics/SVG/1.1/DTD/svg11.dtd"><svg t="1783048859155" class="icon" viewBox="0 0 1024 1024" version="1.1" xmlns="http://www.w3.org/2000/svg" p-id="21215" xmlns:xlink="http://www.w3.org/1999/xlink" width="200" height="200"><path d="M492.407467 90.282667L157.3888 283.2384a40.3456 40.311467 0 0 0-20.241067 34.952533v386.4576a40.482133 40.448 0 0 0 20.206934 35.0208l335.086933 193.262934a40.5504 40.482133 0 0 0 40.482133 0l334.984534-193.2288a40.482133 40.448 0 0 0 20.206933-35.0208V318.3616a40.3456 40.311467 0 0 0-20.241067-34.952533L532.923733 90.453333a40.448 40.379733 0 0 0-40.482133 0z" fill="#388E3C" p-id="21216"></path><path d="M146.705067 728.7808a40.2432 40.209067 0 0 0 11.912533 10.478933l287.402667 165.7856 47.854933 27.579734a40.584533 40.516267 0 0 0 23.313067 5.290666 41.8816 41.813333 0 0 0 7.953066-1.467733l353.3824-646.144a41.403733 41.335467 0 0 0-9.216-7.4752l-219.579733-126.532267-115.950933-66.628266a38.775467 38.741333 0 0 0-10.478934-4.164267z" fill="#4CAF50" p-id="21217"></path><path d="M878.523733 728.7808a40.2432 40.209067 0 0 1-11.912533 10.478933l-287.402667 165.7856-47.854933 27.579734a40.584533 40.516267 0 0 1-23.313067 5.290666 41.8816 41.813333 0 0 1-7.953066-1.467733L146.705067 290.235733a41.403733 41.335467 0 0 1 9.216-7.4752l219.579733-126.464 115.950933-66.628266a38.775467 38.741333 0 0 1 10.478934-4.164267z" fill="#66BB6A" p-id="21218"></path></svg>